<svg xmlns="http://www.w3.org/2000/svg" viewBox="0 0 186.8 187.71"><defs><style>.cls-1{fill:#f1ebe6;}</style></defs><g id="Layer_2" data-name="Layer 2"><g id="Layer_2-2" data-name="Layer 2"><path class="cls-1" d="M1.5,187.71a1.5,1.5,0,0,0,1.06-.43l23-22.92a172.24,172.24,0,0,0,24.39,8c7.78,1.81,10.93,1.41,15.3.84a80.56,80.56,0,0,1,11.72-.8,44.39,44.39,0,0,1,11.36,1.25c4,.88,8.51,1.88,20.67,1.88,1.89,0,4,0,6.26-.08,17.47-.4,21.91-2.29,27-4.48a56.41,56.41,0,0,1,14.17-4.22c19.81-3.6,29.63-16.75,30-17.31a1.49,1.49,0,0,0,0-1.78c-4.12-5.5-39.05-4.08-48.42-2.18-6.05,1.23-13.5,1.32-20.08,1.41-4.46.05-8.66.11-12,.5-3,.36-7.09,1-11.42,1.66-7.41,1.14-15.8,2.43-21.61,2.83l-1.86.13c-8.59.58-15.37,1-21.31,3.7-3.55,1.59-11.74,3.27-17.67,4.35l6.28-4c5.78-2.55,10.87-3.27,15.58-3.94,5.38-.76,10-1.42,14.35-4.63,8.75-6.49,12.17-6.79,20.45-7.51l2.59-.23c7.39-.7,13-3.15,24.13-8,4.8-2.1,10.78-4.71,18.4-7.84,16.19-6.64,21.7-10.8,25.72-13.84a28.73,28.73,0,0,1,6.76-4.17c8.84-3.74,12.25-12.37,12.39-12.73a1.5,1.5,0,0,0-1.56-2l-14.14,1.5c-9,1-21.13,6.5-32.83,11.87-7.06,3.24-14.36,6.59-20.87,8.88-18,6.34-26.59,10.6-43.71,21.69C58.41,139.88,49.94,145.29,42.6,150a474.72,474.72,0,0,1,47.16-31.21c13.26-7.37,27.07-19.86,44.77-40.51C150.3,59.83,146,43.76,145.76,43.09A1.51,1.51,0,0,0,144.35,42c-15.18-.34-20.88,2.88-32.34,10.2S82.28,78.25,75.67,86.26c-5.06,6.12-13.16,19.91-21.74,34.51-1.9,3.25-3.82,6.51-5.72,9.72A174,174,0,0,1,29.7,155.55c3.11-4.88,8.47-13.19,14.45-22,9.3-13.71,21-34.16,25.19-43.28l.72-1.55c4-8.53,8.88-19.15,18.27-41.58C98.35,23.21,96,9.57,95.94,9a1.51,1.51,0,0,0-.82-1.08,1.48,1.48,0,0,0-1.36,0c-9.29,5-16.06,15.84-20.34,23.57-3.93,7.11-7.63,15.81-11.54,25q-1.64,3.84-3.31,7.74l-.47,1.09C53,77.19,48.16,88.34,47.36,100c-.52,7.6-2,9.87-4.06,13a40,40,0,0,0-3.25,5.76c-.88,2-2.34,5.49-4,9.68.3-3.53.38-8,.45-12.59.11-6.45.22-13.11,1-17.31a287.07,287.07,0,0,0,4.09-37c.32-6.46.29-9.94.27-13.3,0-4.78-.07-9.29.8-21.82C44.13,4.88,39.27.81,38.28.22a1.52,1.52,0,0,0-1.82.19C31.59,5.07,26.35,14.87,25.22,17.25a82.63,82.63,0,0,0-2.68,8.38C21.26,30,19.81,35,18.61,38c-2.37,5.89-5.21,22.33-6.07,35.18-.78,11.58,1.16,22.57,2.32,29.13.13.79.26,1.52.38,2.18.51,3.06.11,9.36-.28,15.46s-.76,12-.26,15.06c.86,5.37,7.32,22.35,9.08,26.9L.44,185.15a1.49,1.49,0,0,0,0,2.12A1.47,1.47,0,0,0,1.5,187.71ZM156,163.85a59.24,59.24,0,0,0-14.81,4.41c-4.85,2.07-9,3.86-25.94,4.24-16.65.38-21.73-.74-26.21-1.73a47.47,47.47,0,0,0-12-1.32,83.58,83.58,0,0,0-12.11.82c-4.35.57-7,.91-14.22-.78a156.17,156.17,0,0,1-17.27-5.3c6.72.33,16.85.73,26.81.73a199,199,0,0,0,20.44-.85c17.77-2,37.37-3.63,55.9-5.14,1.82-.15,3.73-.3,5.69-.44,12.14-.91,26.67-2,37.08-5.85A48.93,48.93,0,0,1,156,163.85ZM51.08,158.49c5.45-2.43,12-2.88,20.28-3.44l1.87-.12c5.93-.41,14.39-1.72,21.86-2.87,4.3-.66,8.37-1.29,11.32-1.64,3.13-.38,7.26-.43,11.63-.48,6.71-.09,14.31-.19,20.63-1.47,11.06-2.25,38.22-2.21,44.34.33-9.95,5.38-27,6.66-40.94,7.69l-5.71.44c-18.54,1.52-38.15,3.19-56,5.15-12.21,1.34-31.73.8-43.86.25C42,161.27,48,159.87,51.08,158.49Zm114.19-55.3a32.06,32.06,0,0,0-7.4,4.53c-3.89,2.94-9.22,7-25.05,13.46-7.65,3.14-13.64,5.76-18.46,7.87-10.85,4.75-16.3,7.13-23.21,7.78l-2.57.23c-8.36.73-12.55,1.1-22,8.09-3.72,2.76-8,3.37-13,4.07-1.48.21-3,.44-4.65.73,9.29-5,19.78-10.22,28.16-12.93a550.56,550.56,0,0,0,58.29-23.19c11.74-5.49,31-14.76,38.92-18.55A20.54,20.54,0,0,1,165.27,103.19ZM67.35,137.65c16.88-10.94,25.34-15.14,43.08-21.38,6.64-2.33,14-5.71,21.13-9C143,102,154.9,96.58,163.44,95.67l7-.74c-9,4.35-25.45,12.21-35.87,17.09a551.18,551.18,0,0,1-58.07,23.1,125,125,0,0,0-14.19,5.78C64,139.8,65.72,138.71,67.35,137.65Zm64.9-61.38c-17.46,20.37-31,32.66-43.94,39.85A470.45,470.45,0,0,0,44.6,144.68l5.46-5.51c11.88-12,24.83-25,28.09-28.09L80,109.32c6-5.7,13.52-12.8,18.81-19.56l.23-.29c2-1.8,3.87-3.45,5.61-4.9,13.73-11.46,29-27.75,36.19-35.69,1-.87,1.78-1.64,2.44-2.33C143.76,51.63,143.31,63.38,132.25,76.27Zm-23.89,2.46a246.7,246.7,0,0,1,21.69-21.2C123.77,64.12,116,71.91,108.36,78.73ZM50.79,132c1.9-3.2,3.82-6.47,5.73-9.72C65,107.79,73.07,94.11,78,88.17c6.51-7.88,24.49-26.31,35.65-33.44,10.49-6.7,15.65-9.66,28-9.75l-2.22,2.46c-1.64,1.44-4,3.36-7.3,5.87-11.57,8.74-28.36,27-34.57,34.79C78.34,105.55,50,136.38,49.69,136.7l-.62.62-5.21,5.26C46.23,139.27,48.59,135.72,50.79,132ZM85.56,46c-9.37,22.38-14.28,33-18.23,41.48L66.62,89c-4.18,9-15.73,29.28-25,42.86L39.55,135c6.49-12.46,13.39-26.09,15.54-31.68.2-.52,20.19-52.25,29-68.5a181.4,181.4,0,0,0,9-19.13C92.88,21.75,91.38,32.08,85.56,46ZM42.78,120a37.13,37.13,0,0,1,3-5.36c2.12-3.25,4-6.07,4.53-14.45.76-11.11,5.49-22,10.5-33.6l.47-1.1c1.13-2.6,2.23-5.19,3.32-7.75C68.52,48.58,72.19,39.94,76,33c3.63-6.55,9.09-15.42,16.25-20.56a173.58,173.58,0,0,1-9.92,21.44c-8.91,16.37-28.94,68.22-29.14,68.74-2.44,6.34-11.35,23.66-18.56,37.41C37.9,131.77,41.26,123.34,42.78,120ZM39.65,26.15c-.88,12.63-.85,17.42-.81,22,0,3.32,0,6.76-.27,13.13a279.23,279.23,0,0,1-4,36.66c-.82,4.44-.93,11.23-1,17.8-.1,6.3-.21,12.81-1,16.21s-2.78,10.66-4.63,17.19c-.53,1.37-1,2.65-1.47,3.8-.27-13.83-.59-40.12.31-56.87,1.84-33.92,5.74-77.16,10.87-92C38.78,6.37,40.61,12.26,39.65,26.15ZM18,120.15c.4-6.27.81-12.75.23-16.15-.11-.67-.24-1.41-.38-2.2-1.13-6.43-3-17.19-2.28-28.41.83-12.38,3.63-28.71,5.86-34.26,1.26-3.13,2.74-8.19,4-12.66,1-3.55,2-6.91,2.5-7.93a92.26,92.26,0,0,1,6.54-11C28.53,30.21,25.35,84.33,24.72,96c-1,17.75-.55,46.11-.28,59.2-2.55-6.84-6.19-16.95-6.78-20.65C17.21,131.78,17.59,125.87,18,120.15Z"/></g></g></svg>