<svg xmlns="http://www.w3.org/2000/svg" viewBox="0 0 875.57 854.85"><defs><style>.cls-1{fill:#2d2b2b;}.cls-2{fill:#fcf6dd;}</style></defs><g id="Layer_2" data-name="Layer 2"><g id="Layer_4" data-name="Layer 4"><path class="cls-1" d="M46.49,769.58a1.4,1.4,0,0,1,1,.42,1.5,1.5,0,0,1,.45,1,1.32,1.32,0,0,1-.41,1.07,21.3,21.3,0,0,1-7.26,5.09,10.36,10.36,0,0,1-6.8.53A9.1,9.1,0,0,1,28,772.85q-1.14,4.26-2.59,8.13c-1.47,3.75-2.73,6.26-3.8,7.53a4.61,4.61,0,0,1-3,2q-2.73.07-3.8-5.17c-.15-.86-.28-1.87-.38-3q-4.63,7.07-6.91,9.2a5,5,0,0,1-3.35,1.67,2.9,2.9,0,0,1-1.67-.53q-2.88-1.83-2.32-9.69a70.44,70.44,0,0,1,4.22-18.13,1.54,1.54,0,0,1,.76-.79,1.36,1.36,0,0,1,1.1-.08,1.4,1.4,0,0,1,.84.76,1.29,1.29,0,0,1,0,1.1,73.56,73.56,0,0,0-3.46,12.77A36,36,0,0,0,2.91,787c.17,1.78.54,2.84,1.1,3.2q.3.23,1.44-.84,2.35-2.21,8.89-12.46a1.27,1.27,0,0,1,1.6-.61A1.35,1.35,0,0,1,17,777.71a37.55,37.55,0,0,0,.61,7.07,7.92,7.92,0,0,0,.91,2.74q1.53-1,4.18-7.87a55.08,55.08,0,0,0,3.42-12.5,1.37,1.37,0,0,1,.5-.88,1.49,1.49,0,0,1,.95-.34A1.24,1.24,0,0,1,29,767.07q1.29,6.61,5.32,7.83a7.53,7.53,0,0,0,5.25-.61A19.72,19.72,0,0,0,45.5,770,1.23,1.23,0,0,1,46.49,769.58Z"/><path class="cls-1" d="M70.66,770.26a1.47,1.47,0,0,1,1.1.31,1.41,1.41,0,0,1,.57,1,1.34,1.34,0,0,1-.3,1.06,22.7,22.7,0,0,1-7.45,6.31,11.77,11.77,0,0,1-8.13,1.44,9.68,9.68,0,0,1-3,4.07,6.31,6.31,0,0,1-3.95,1.48h-.08a5.74,5.74,0,0,1-3.61-1.41,7,7,0,0,1-2.16-3.68,11.13,11.13,0,0,1,.34-7.11,10,10,0,0,1,3.84-5,1.26,1.26,0,0,1,1.21-.16A5.93,5.93,0,0,1,51,766a3.2,3.2,0,0,1,4,0,5.62,5.62,0,0,1,1.29,1.56,8.82,8.82,0,0,1,1,3.27,28,28,0,0,1,.15,5.24c0,.51-.12,1-.22,1.52a9.08,9.08,0,0,0,6.42-1.44,20.62,20.62,0,0,0,6-5.32A1.49,1.49,0,0,1,70.66,770.26ZM49.53,783a3.55,3.55,0,0,0,2.24-1,7.43,7.43,0,0,0,1.94-2.66q-4.93-2.74-5.17-7.45a7.61,7.61,0,0,0-2.09,3.88,7.7,7.7,0,0,0,0,4.25Q47.33,783,49.53,783Zm4.94-7.07a20,20,0,0,0,0-3.16q-.12-1.32-.27-2.16a6.59,6.59,0,0,0-.38-1.37,3.11,3.11,0,0,0-.42-.76c-.12-.15-.21-.23-.26-.23H53.1c-.2,0-.45.17-.76.5a3.15,3.15,0,0,0-.68,1.33,5.08,5.08,0,0,0,.15,3.26,6.43,6.43,0,0,0,2.66,3Z"/><path class="cls-1" d="M110.33,769.77a1.49,1.49,0,0,1,1.06.34,1.37,1.37,0,0,1,.5,1,1.51,1.51,0,0,1-.34,1.07q-9.66,11.31-15.28,9.19-4-1.51-4.33-9.65-1.06,2-3.35,6.61-1.29,2.82-1.74,3.57c-1.32,2.54-2.74,3.6-4.26,3.2-2.08-.51-3.09-3.42-3-8.75,0-1,0-2.2.08-3.57A154,154,0,0,0,69.37,790c-.61,1.16-1.27,1.75-2,1.75a1.55,1.55,0,0,1-.72-.19,3.81,3.81,0,0,1-.53-.34,1.76,1.76,0,0,1-.38-.84,4.62,4.62,0,0,1-.08-1.75c.08-.71.24-1.75.49-3.12s.64-3,1.14-4.94a106,106,0,0,1,5.86-17.4,1.35,1.35,0,0,1,.79-.83,1.44,1.44,0,0,1,1.9.87,1.49,1.49,0,0,1,0,1.1,106,106,0,0,0-6.24,19.08A161,161,0,0,1,79,768.52c.71-1,1.49-1.37,2.35-1.07a1.49,1.49,0,0,1,1.07,1.26,25.57,25.57,0,0,1,.07,3.76c-.05,1.57-.07,2.86-.07,3.87a14,14,0,0,0,.83,5.71,7.73,7.73,0,0,0,1.07-1.53c.25-.5.81-1.64,1.67-3.42a81.92,81.92,0,0,1,4.48-8.55c.92-1.34,1.85-1.91,2.82-1.71s1.59,1.37,1.59,3.35q-.08,7.45,2.43,8.44c1,.35,2.56-.12,4.64-1.41a34.55,34.55,0,0,0,7.37-7A1.38,1.38,0,0,1,110.33,769.77Z"/><path class="cls-1" d="M132.75,769.92a1.42,1.42,0,0,1,1.1.23,1.31,1.31,0,0,1,.57,1,1.5,1.5,0,0,1-.23,1.07q-8.58,12-15.65,17a9.66,9.66,0,0,1-5.55,2,6.16,6.16,0,0,1-3.72-1.15,6.62,6.62,0,0,1-1.64-1.82,11.31,11.31,0,0,1-1.25-3.19,15.61,15.61,0,0,1-.19-5.4,38.11,38.11,0,0,1,1.71-7.6v-.07a35.61,35.61,0,0,1,5.17-11c2-2.68,3.85-4,5.47-4.1a2.08,2.08,0,0,1,2.28,1.52c.55,1.47-.1,3.55-2,6.23a47.14,47.14,0,0,1-8.28,8.66,37.47,37.47,0,0,0-1.29,5.48,17.92,17.92,0,0,0-.27,4,9.33,9.33,0,0,0,.53,2.58,6.81,6.81,0,0,0,.76,1.56,4.39,4.39,0,0,0,.72.76q2.28,1.67,5.86-.91,6.67-4.71,14.89-16.27A1.66,1.66,0,0,1,132.75,769.92ZM118,760.08q-2.67,1.68-5.25,7.22Q117.17,762.89,118,760.08Z"/><path class="cls-1" d="M159.73,770a1.51,1.51,0,0,1,1.14.15,1.38,1.38,0,0,1,.68.87,1.45,1.45,0,0,1-.15,1.11,84.8,84.8,0,0,1-4.48,7.21,19.36,19.36,0,0,1-3.88,4.18,5.28,5.28,0,0,1-3.88,1.3q-3.79-.47-6-8.21c-1.06-3.5-2-5.25-2.74-5.25-.15,0-.36,0-.64.19a7.84,7.84,0,0,0-1.33,1.37,23.65,23.65,0,0,0-2,3q-1.1,1.9-2.88,5.63t-3.84,8.81a1.37,1.37,0,0,1-1.37.92.67.67,0,0,1-.3-.08,1.32,1.32,0,0,1-1.14-1.6q.75-6.23,5.7-23.18c.35-1.16.6-2.05.76-2.66a1.52,1.52,0,0,1,.76-.87,1.5,1.5,0,0,1,1.1-.11,1.38,1.38,0,0,1,.87.68,1.3,1.3,0,0,1,.08,1.14c-.1.36-.36,1.24-.76,2.66q-1.68,5.85-2.58,9.12a26.68,26.68,0,0,1,4.25-6.31,4.91,4.91,0,0,1,3.5-1.67,3.75,3.75,0,0,1,3.15,2,25.56,25.56,0,0,1,2.24,5.4q1.68,5.85,3.57,6.08a3,3,0,0,0,2.25-1,18.54,18.54,0,0,0,2.85-3.42c1-1.49,1.78-2.67,2.31-3.53s1.16-2,1.87-3.27A1.38,1.38,0,0,1,159.73,770Z"/><path class="cls-1" d="M167.48,745.56a3.48,3.48,0,0,1,1.44,3,7.47,7.47,0,0,1-1.63,4.26,18.69,18.69,0,0,1-3.84,4,1.42,1.42,0,0,1-.91.3,1.36,1.36,0,0,1-1.14-.61,1.34,1.34,0,0,1-.3-1.06,1.38,1.38,0,0,1,.6-1,21.3,21.3,0,0,0,2.17-2,9.6,9.6,0,0,0,1.6-2.12,4,4,0,0,0,.57-1.75.74.74,0,0,0-.31-.61,1.39,1.39,0,0,1-.61-1,1.54,1.54,0,0,1,.27-1.1,1.29,1.29,0,0,1,1-.57A1.57,1.57,0,0,1,167.48,745.56Z"/><path class="cls-1" d="M202.21,769.35a1.32,1.32,0,0,1,1.07.34,1.67,1.67,0,0,1,.53,1,1.25,1.25,0,0,1-.38,1.07Q188.69,789,186.56,791.62c-.87,1.11-1.7,2.21-2.51,3.27a18,18,0,0,1,.15,8.36,25,25,0,0,1-2.58,6.92,16.8,16.8,0,0,1-4,4.71,6.32,6.32,0,0,1-3.95,1.82,2.57,2.57,0,0,1-1.9-.76q-4-3.87,9.05-21.66a20.42,20.42,0,0,0-2.66-5.62,82.18,82.18,0,0,1-5.63-9.5,14.62,14.62,0,0,1-1.67-6.92,11.48,11.48,0,0,1,1.63-5.47,11.69,11.69,0,0,1,4-3.95A10.53,10.53,0,0,1,181,761.3a8.16,8.16,0,0,1,4.33.68,1.55,1.55,0,0,1,.72.87,1.43,1.43,0,0,1-.91,1.83,1.49,1.49,0,0,1-1.1,0q-2.75-1.29-6,.69a8.22,8.22,0,0,0-4.18,7.06,12,12,0,0,0,1.6,6,87.69,87.69,0,0,0,5.17,8.62,25.08,25.08,0,0,1,2.35,4.49c.41-.51.84-1.07,1.3-1.67q2.11-2.67,16.94-19.92A1.52,1.52,0,0,1,202.21,769.35Zm-23.63,40.13a17.89,17.89,0,0,0,3-11.17,85.54,85.54,0,0,0-5.13,8.13,28.39,28.39,0,0,0-2.36,5.13,5,5,0,0,0-.26,2.17,5,5,0,0,0,2.05-1.18A15,15,0,0,0,178.58,809.48Z"/><path class="cls-1" d="M259.67,769.77a1.46,1.46,0,0,1,.95.61,1.3,1.3,0,0,1,.19,1.1,1.46,1.46,0,0,1-.61.91,132.86,132.86,0,0,0-22,17.41q-4.49,26.82-9.8,43.54Q222,853,216.12,854.7a4.14,4.14,0,0,1-1.14.15,3.86,3.86,0,0,1-3-1.52c-1.42-1.82-2.19-4.84-2.32-9a55.39,55.39,0,0,1,2-14.9,77.05,77.05,0,0,1,6.27-16.56,104.61,104.61,0,0,1,17.63-24.48q1.14-7.14,2.28-15a63.67,63.67,0,0,1-4.41,6q-3.35,4.11-6.38,2.29c-1.67-1-2.56-3.13-2.66-6.35a25.63,25.63,0,0,1,2.2-10.53,1.49,1.49,0,0,1,1.9-.76,1.56,1.56,0,0,1,.8.76,1.37,1.37,0,0,1,0,1.14,26.81,26.81,0,0,0-2,9.05c0,2.33.45,3.72,1.26,4.18.55.35,1.42-.18,2.58-1.6A83.23,83.23,0,0,0,238.92,766a1.31,1.31,0,0,1,1.75-.65,1.34,1.34,0,0,1,1,1.56q-1.31,9.51-2.66,18a144.84,144.84,0,0,1,19.6-15A1.4,1.4,0,0,1,259.67,769.77Zm-34.13,62.74q4.88-15.19,9.05-38.84a98.3,98.3,0,0,0-14.14,20.52,71.12,71.12,0,0,0-5.2,12.73,60.27,60.27,0,0,0-2.4,11.37,41.9,41.9,0,0,0-.07,8.35q.38,3.5,1.44,4.79c.36.41.71.56,1.06.46a2.37,2.37,0,0,0,.84-.38,9.69,9.69,0,0,0,1.52-1.56,19.57,19.57,0,0,0,2.13-3.19c.71-1.29,1.59-3.18,2.66-5.66S224.53,835.75,225.54,832.51Z"/><path class="cls-1" d="M283.53,770.26a1.46,1.46,0,0,1,1.1.31,1.41,1.41,0,0,1,.57,1,1.34,1.34,0,0,1-.3,1.06,22.7,22.7,0,0,1-7.45,6.31,11.77,11.77,0,0,1-8.13,1.44,9.68,9.68,0,0,1-3,4.07,6.31,6.31,0,0,1-4,1.48h-.07a5.7,5.7,0,0,1-3.61-1.41,7,7,0,0,1-2.17-3.68,11.19,11.19,0,0,1,.34-7.11,10,10,0,0,1,3.84-5,1.28,1.28,0,0,1,1.22-.16,5.84,5.84,0,0,1,1.93-2.58,3.2,3.2,0,0,1,4,0,5.62,5.62,0,0,1,1.29,1.56,9,9,0,0,1,1,3.27,28.88,28.88,0,0,1,.15,5.24c-.05.51-.13,1-.23,1.52a9.08,9.08,0,0,0,6.42-1.44,20.5,20.5,0,0,0,6-5.32A1.51,1.51,0,0,1,283.53,770.26ZM262.4,783a3.55,3.55,0,0,0,2.24-1,7.31,7.31,0,0,0,1.94-2.66q-4.93-2.74-5.17-7.45a7.52,7.52,0,0,0-2.08,3.88,7.8,7.8,0,0,0,0,4.25Q260.2,783,262.4,783Zm4.94-7.07a18.85,18.85,0,0,0,0-3.16c-.08-.88-.16-1.6-.26-2.16a6.54,6.54,0,0,0-.39-1.37,3.54,3.54,0,0,0-.41-.76c-.13-.15-.22-.23-.27-.23H266c-.2,0-.45.17-.76.5a3.15,3.15,0,0,0-.68,1.33,5.22,5.22,0,0,0,.15,3.26,6.43,6.43,0,0,0,2.66,3Z"/><path class="cls-1" d="M315.34,769.66a1.55,1.55,0,0,1,.91.64,1.42,1.42,0,0,1,.23,1.1,1.3,1.3,0,0,1-.65.92,211.75,211.75,0,0,0-21.51,15.58q-4.79,28.88-11.17,43.93t-12.46,16.72a6.15,6.15,0,0,1-1.6.22,5.26,5.26,0,0,1-4.18-2.13q-3.27-4.1-2.36-13.14a53.86,53.86,0,0,1,6.62-19.91,102.34,102.34,0,0,1,22.42-27.21q1.05-6.46,2-13.53-2.43,3.64-4.48,6.38c-2.13,2.79-3.95,3.95-5.47,3.5-1.22-.35-1.93-1.47-2.13-3.35a22.13,22.13,0,0,1,.8-6.87,31.66,31.66,0,0,1,3.38-8.33q2.35-4.09,5.17-5.47,3.87-2,7.52,1.3a1.54,1.54,0,0,1,.49,1,1.33,1.33,0,0,1-.38,1,1.44,1.44,0,0,1-1,.49,1.47,1.47,0,0,1-1.07-.34q-2.73-2.51-5.54,0-3.19,2.88-5.1,9.16c-1.26,4.18-1.67,7-1.21,8.39a10.19,10.19,0,0,0,2.2-2.28,105.1,105.1,0,0,0,7.83-11.62,1.39,1.39,0,0,1,1.75-.65,1.29,1.29,0,0,1,1,1.56q-1.07,8.75-2.28,16.72a217.17,217.17,0,0,1,19.22-13.61A1.29,1.29,0,0,1,315.34,769.66Zm-45.49,76.07c1.37-.35,2.85-1.57,4.45-3.64a51,51,0,0,0,5.2-9.13,111.53,111.53,0,0,0,5.82-16.87q3-10.86,5.51-25A95.11,95.11,0,0,0,271.75,815a56,56,0,0,0-3.76,8.21,46.18,46.18,0,0,0-2.09,7.44,34.44,34.44,0,0,0-.61,6.2,19.09,19.09,0,0,0,.53,4.83,9.51,9.51,0,0,0,1.37,3.11A2.36,2.36,0,0,0,269.85,845.73Z"/><path class="cls-1" d="M343.46,770.15a1.36,1.36,0,0,1,1.1.08,1.41,1.41,0,0,1,.72.83,1.52,1.52,0,0,1,0,1.11Q337.11,789,330.73,789a5.16,5.16,0,0,1-.84-.08q-5.1-1-6.31-13.67-3.72,5-6.61,8.2-2.58,2.75-4.41,1.9c-1.21-.45-1.8-1.77-1.75-3.95a22,22,0,0,1,1.22-6.53,30,30,0,0,1,3.57-7.38q2.36-3.57,5.09-4.48,4-1.44,7.45,2.66a1.45,1.45,0,0,1,.34,1.06,1.32,1.32,0,0,1-.49,1,1.45,1.45,0,0,1-1.06.34,1.32,1.32,0,0,1-1-.49c-1.78-2.13-3.57-2.53-5.4-1.22q-3.12,2.21-5.2,8c-1.4,3.82-1.94,6.54-1.64,8.16.31-.25.66-.58,1.07-1a105.42,105.42,0,0,0,7.44-9.35l1.37-1.9a1.43,1.43,0,0,1,1.6-.5,1.35,1.35,0,0,1,1.06,1.33,58.63,58.63,0,0,0,.61,6.62,34.25,34.25,0,0,0,.91,4.37,10.82,10.82,0,0,0,1.07,2.47,5,5,0,0,0,.95,1.25,1.11,1.11,0,0,0,.72.27,3.56,3.56,0,0,0,2.7-1,24.28,24.28,0,0,0,4.18-4.86,64.85,64.85,0,0,0,5.2-9.16A1.5,1.5,0,0,1,343.46,770.15Z"/><path class="cls-1" d="M395.06,770.15a1.36,1.36,0,0,1,1.1.08,1.41,1.41,0,0,1,.72.83,1.47,1.47,0,0,1,0,1.11Q388.71,789,382.33,789a5.27,5.27,0,0,1-.84-.08q-5.08-1-6.31-13.67-3.72,5-6.61,8.2-2.58,2.75-4.41,1.9c-1.21-.45-1.79-1.77-1.74-3.95a22,22,0,0,1,1.21-6.53,30,30,0,0,1,3.57-7.38q2.35-3.57,5.1-4.48,4-1.44,7.44,2.66a1.45,1.45,0,0,1,.35,1.06,1.33,1.33,0,0,1-.5,1,1.45,1.45,0,0,1-1.06.34,1.32,1.32,0,0,1-1-.49c-1.77-2.13-3.57-2.53-5.4-1.22q-3.11,2.21-5.2,8c-1.4,3.82-1.94,6.54-1.64,8.16.31-.25.66-.58,1.07-1a105.21,105.21,0,0,0,7.45-9.35l1.36-1.9a1.43,1.43,0,0,1,1.6-.5,1.35,1.35,0,0,1,1.06,1.33,61.05,61.05,0,0,0,.61,6.62,36.11,36.11,0,0,0,.91,4.37,10.82,10.82,0,0,0,1.07,2.47,5,5,0,0,0,.95,1.25,1.15,1.15,0,0,0,.72.27,3.56,3.56,0,0,0,2.7-1,24,24,0,0,0,4.18-4.86,64.85,64.85,0,0,0,5.2-9.16A1.52,1.52,0,0,1,395.06,770.15Z"/><path class="cls-1" d="M423,770a1.51,1.51,0,0,1,1.14.15,1.38,1.38,0,0,1,.68.87,1.45,1.45,0,0,1-.15,1.11,84.8,84.8,0,0,1-4.48,7.21,19.36,19.36,0,0,1-3.88,4.18,5.28,5.28,0,0,1-3.88,1.3q-3.8-.47-6-8.21c-1.06-3.5-2-5.25-2.74-5.25-.15,0-.36,0-.64.19a7.84,7.84,0,0,0-1.33,1.37,23.65,23.65,0,0,0-2,3q-1.1,1.9-2.88,5.63T393,790.4a1.38,1.38,0,0,1-1.37.92.67.67,0,0,1-.3-.08,1.31,1.31,0,0,1-1.14-1.6q.75-6.23,5.7-23.18c.35-1.16.6-2.05.76-2.66a1.52,1.52,0,0,1,.76-.87,1.5,1.5,0,0,1,1.1-.11,1.38,1.38,0,0,1,.87.68,1.3,1.3,0,0,1,.08,1.14c-.1.36-.36,1.24-.76,2.66q-1.68,5.85-2.59,9.12a26.35,26.35,0,0,1,4.26-6.31,4.91,4.91,0,0,1,3.5-1.67,3.76,3.76,0,0,1,3.15,2,26.1,26.1,0,0,1,2.24,5.4q1.68,5.85,3.57,6.08a3,3,0,0,0,2.25-1,18.54,18.54,0,0,0,2.85-3.42c1-1.49,1.78-2.67,2.31-3.53s1.16-2,1.87-3.27A1.38,1.38,0,0,1,423,770Z"/><path class="cls-1" d="M453.08,723.68q2,2-2,14c-.21.61-.49,1.44-.84,2.51-1.11,3.39-2,6.1-2.74,8.13s-1.82,4.87-3.34,8.51S441,764,439.25,767.3q-2.21,10.49-4.18,22.34-3.42,20.29-3.65,27.52a1.71,1.71,0,0,1,1.22,0,1.55,1.55,0,0,1,.72.87,1.49,1.49,0,0,1,0,1.1c-.91,1.93-1.82,2.89-2.73,2.89a2.49,2.49,0,0,1-.61-.08,1.92,1.92,0,0,1-1.18-1.1,9.71,9.71,0,0,1-.3-3.34c0-1.7.24-4.19.64-7.49q.92-7.9,3-20.82,1.21-7.07,2.51-13.76-2.35,3.81-5,7.6-5,7.31-8.74,5.25c-1.62-1.17-2.4-3.23-2.35-6.2a22.2,22.2,0,0,1,2.2-9,20,20,0,0,1,5.93-7.83q3.42-2.5,6.08-1.71a4.25,4.25,0,0,1,3,4c.25-.41.48-.81.68-1.22a256,256,0,0,1,8.1-30.66q4.06-11.6,6.65-12.43A1.56,1.56,0,0,1,453.08,723.68Zm-25.76,57.68q3.57-5.16,6.53-10.34a1.19,1.19,0,0,1-.91-1.51c.2-1.88-.12-2.94-1-3.2h-.45c-1.07,0-2.37.7-3.92,2.09a18.86,18.86,0,0,0-4.14,6,18.34,18.34,0,0,0-1.63,5.13,15,15,0,0,0-.19,4.26c.15,1.08.43,1.73.83,1.93.16.11.4.09.73,0a6.17,6.17,0,0,0,1.63-1.29A21.87,21.87,0,0,0,427.32,781.36Zm21-44.61a75.74,75.74,0,0,0,2.21-7.91q-3.72,7.83-8,24.4,2.13-5.16,4.94-13.91C447.81,738.22,448.09,737.36,448.29,736.75Z"/><path class="cls-1" d="M513.27,769.58a1.4,1.4,0,0,1,1,.42,1.56,1.56,0,0,1,.46,1,1.37,1.37,0,0,1-.42,1.07,21.12,21.12,0,0,1-7.26,5.09,10.36,10.36,0,0,1-6.8.53,9.15,9.15,0,0,1-5.55-4.86q-1.14,4.26-2.58,8.13-2.2,5.63-3.8,7.53a4.65,4.65,0,0,1-3,2q-2.74.07-3.8-5.17c-.16-.86-.28-1.87-.38-3q-4.65,7.07-6.92,9.2a5,5,0,0,1-3.34,1.67,2.91,2.91,0,0,1-1.68-.53q-2.88-1.83-2.31-9.69a70.38,70.38,0,0,1,4.21-18.13,1.58,1.58,0,0,1,.76-.79,1.41,1.41,0,0,1,1.94.68,1.29,1.29,0,0,1,0,1.1,73.56,73.56,0,0,0-3.46,12.77,36,36,0,0,0-.68,8.43c.18,1.78.54,2.84,1.1,3.2q.3.23,1.44-.84,2.36-2.21,8.9-12.46a1.26,1.26,0,0,1,1.59-.61,1.36,1.36,0,0,1,1.07,1.44,37.6,37.6,0,0,0,.6,7.07,7.68,7.68,0,0,0,.92,2.74q1.51-1,4.18-7.87a56.14,56.14,0,0,0,3.42-12.5,1.35,1.35,0,0,1,.49-.88,1.49,1.49,0,0,1,1-.34,1.24,1.24,0,0,1,1.44,1.14q1.29,6.61,5.32,7.83a7.53,7.53,0,0,0,5.25-.61,19.87,19.87,0,0,0,5.93-4.25A1.2,1.2,0,0,1,513.27,769.58Z"/><path class="cls-1" d="M535.62,769.92a1.42,1.42,0,0,1,1.1.23,1.31,1.31,0,0,1,.57,1,1.55,1.55,0,0,1-.23,1.07q-8.59,12-15.66,17a9.6,9.6,0,0,1-5.54,2,6.21,6.21,0,0,1-3.73-1.15,6.6,6.6,0,0,1-1.63-1.82,11.59,11.59,0,0,1-1.26-3.19,16.12,16.12,0,0,1-.19-5.4,38.11,38.11,0,0,1,1.71-7.6v-.07a35.84,35.84,0,0,1,5.17-11q3-4,5.47-4.1a2.06,2.06,0,0,1,2.28,1.52q.84,2.21-2,6.23a47.57,47.57,0,0,1-8.29,8.66,38.8,38.8,0,0,0-1.29,5.48,18.43,18.43,0,0,0-.26,4,9,9,0,0,0,.53,2.58,6.81,6.81,0,0,0,.76,1.56,4.39,4.39,0,0,0,.72.76q2.28,1.67,5.85-.91,6.69-4.71,14.9-16.27A1.66,1.66,0,0,1,535.62,769.92Zm-14.75-9.84q-2.65,1.68-5.24,7.22Q520,762.89,520.87,760.08Z"/><path class="cls-1" d="M555.45,715.92c1.07,1.58.54,5.29-1.56,11.14a106.48,106.48,0,0,1-10.22,20l-.15.15q-4.78,19.15-9.16,39.93t-5.58,29.61h.15a1.52,1.52,0,0,1,.87.76,1.37,1.37,0,0,1,0,1.14c-.31.86-.55,1.5-.72,1.93a4.68,4.68,0,0,1-.8,1.26,1.54,1.54,0,0,1-1.14.61,2.27,2.27,0,0,1-.53-.08c-.71-.25-1.09-.95-1.14-2.09a56.1,56.1,0,0,1,1.06-8.4q1.36-8.2,4.1-21.43,6.32-30.09,12.54-53.65c.36-1.32.74-2.7,1.15-4.15s1-3.25,1.74-5.43,1.51-4.09,2.25-5.74a25.32,25.32,0,0,1,2.47-4.41c.91-1.29,1.77-2,2.58-2.09A1.92,1.92,0,0,1,555.45,715.92Zm-9.27,21.13q6.08-11.47,6.84-18Q549.67,724.05,546.18,737.05Z"/><path class="cls-1" d="M567,715.92q1.61,2.37-1.55,11.14a107.2,107.2,0,0,1-10.23,20l-.15.15q-4.79,19.15-9.16,39.93t-5.58,29.61h.15a1.49,1.49,0,0,1,.87.76,1.37,1.37,0,0,1,0,1.14c-.3.86-.54,1.5-.72,1.93a4.44,4.44,0,0,1-.8,1.26,1.53,1.53,0,0,1-1.14.61,2.27,2.27,0,0,1-.53-.08c-.71-.25-1.09-.95-1.14-2.09a56.1,56.1,0,0,1,1.06-8.4q1.36-8.2,4.11-21.43,6.3-30.09,12.54-53.65c.35-1.32.73-2.7,1.14-4.15s1-3.25,1.75-5.43,1.5-4.09,2.24-5.74a25.32,25.32,0,0,1,2.47-4.41c.91-1.29,1.77-2,2.58-2.09A1.91,1.91,0,0,1,567,715.92Zm-9.27,21.13q6.07-11.47,6.84-18Q561.23,724.05,557.73,737.05Z"/><path class="cls-1" d="M585.7,770a1.51,1.51,0,0,1,1.14.15,1.38,1.38,0,0,1,.68.87,1.45,1.45,0,0,1-.15,1.11,84.8,84.8,0,0,1-4.48,7.21,19.36,19.36,0,0,1-3.88,4.18,5.28,5.28,0,0,1-3.88,1.3q-3.79-.47-6-8.21c-1.06-3.5-2-5.25-2.74-5.25-.15,0-.36,0-.64.19a7.84,7.84,0,0,0-1.33,1.37,23.65,23.65,0,0,0-2,3q-1.1,1.9-2.88,5.63t-3.84,8.81a1.38,1.38,0,0,1-1.37.92.67.67,0,0,1-.3-.08,1.31,1.31,0,0,1-1.14-1.6q.75-6.23,5.7-23.18c.35-1.16.6-2.05.76-2.66a1.52,1.52,0,0,1,.76-.87,1.5,1.5,0,0,1,1.1-.11,1.38,1.38,0,0,1,.87.68,1.3,1.3,0,0,1,.08,1.14c-.1.36-.36,1.24-.76,2.66q-1.68,5.85-2.59,9.12a26.35,26.35,0,0,1,4.26-6.31,4.91,4.91,0,0,1,3.5-1.67,3.76,3.76,0,0,1,3.15,2,26.1,26.1,0,0,1,2.24,5.4q1.68,5.85,3.57,6.08a3,3,0,0,0,2.25-1,18.54,18.54,0,0,0,2.85-3.42c1-1.49,1.78-2.67,2.31-3.53s1.16-2,1.87-3.27A1.38,1.38,0,0,1,585.7,770Z"/><path class="cls-1" d="M608,769.92a1.42,1.42,0,0,1,1.1.23,1.31,1.31,0,0,1,.57,1,1.55,1.55,0,0,1-.23,1.07q-8.6,12-15.66,17a9.6,9.6,0,0,1-5.54,2,6.21,6.21,0,0,1-3.73-1.15,6.6,6.6,0,0,1-1.63-1.82,11.59,11.59,0,0,1-1.26-3.19,16.12,16.12,0,0,1-.19-5.4,38.11,38.11,0,0,1,1.71-7.6v-.07a35.61,35.61,0,0,1,5.17-11q3-4,5.47-4.1a2.06,2.06,0,0,1,2.28,1.52q.84,2.21-2,6.23a47.57,47.57,0,0,1-8.29,8.66,38.8,38.8,0,0,0-1.29,5.48,18.43,18.43,0,0,0-.26,4,9,9,0,0,0,.53,2.58,6.81,6.81,0,0,0,.76,1.56,4.39,4.39,0,0,0,.72.76q2.28,1.67,5.85-.91,6.69-4.71,14.9-16.27A1.66,1.66,0,0,1,608,769.92Zm-14.75-9.84q-2.65,1.68-5.24,7.22Q592.38,762.89,593.22,760.08Z"/><path class="cls-1" d="M638.21,769.35a1.32,1.32,0,0,1,1.07.34,1.67,1.67,0,0,1,.53,1,1.25,1.25,0,0,1-.38,1.07Q624.69,789,622.56,791.62c-.87,1.11-1.7,2.21-2.51,3.27a18,18,0,0,1,.15,8.36,25,25,0,0,1-2.58,6.92,16.8,16.8,0,0,1-4,4.71,6.3,6.3,0,0,1-3.95,1.82,2.57,2.57,0,0,1-1.9-.76q-4-3.87,9.05-21.66a20.42,20.42,0,0,0-2.66-5.62,82.18,82.18,0,0,1-5.63-9.5,14.62,14.62,0,0,1-1.67-6.92,11.48,11.48,0,0,1,1.63-5.47,11.69,11.69,0,0,1,4-3.95A10.53,10.53,0,0,1,617,761.3a8.16,8.16,0,0,1,4.33.68,1.51,1.51,0,0,1,.72.87,1.43,1.43,0,0,1-.91,1.83,1.49,1.49,0,0,1-1.1,0q-2.74-1.29-6,.69a8.19,8.19,0,0,0-4.17,7.06,11.92,11.92,0,0,0,1.59,6,89.72,89.72,0,0,0,5.17,8.62,25.08,25.08,0,0,1,2.35,4.49c.41-.51.84-1.07,1.3-1.67q2.12-2.67,16.94-19.92A1.52,1.52,0,0,1,638.21,769.35Zm-23.63,40.13a17.83,17.83,0,0,0,3-11.17,85.54,85.54,0,0,0-5.13,8.13,28.39,28.39,0,0,0-2.36,5.13,5.22,5.22,0,0,0-.26,2.17,5,5,0,0,0,2.05-1.18A15,15,0,0,0,614.58,809.48Z"/><path class="cls-1" d="M668.84,769.35a1.32,1.32,0,0,1,1.07.34,1.67,1.67,0,0,1,.53,1,1.25,1.25,0,0,1-.38,1.07Q655.32,789,653.18,791.62c-.86,1.11-1.69,2.21-2.5,3.27a18,18,0,0,1,.15,8.36,24.64,24.64,0,0,1-2.59,6.92,16.61,16.61,0,0,1-4,4.71,6.32,6.32,0,0,1-3.95,1.82,2.57,2.57,0,0,1-1.9-.76q-4-3.87,9-21.66a20.1,20.1,0,0,0-2.65-5.62,82.18,82.18,0,0,1-5.63-9.5,14.5,14.5,0,0,1-1.67-6.92,11.37,11.37,0,0,1,1.63-5.47,11.69,11.69,0,0,1,4-3.95,10.53,10.53,0,0,1,4.49-1.52A8.16,8.16,0,0,1,652,762a1.55,1.55,0,0,1,.72.87,1.43,1.43,0,0,1-.91,1.83,1.49,1.49,0,0,1-1.1,0q-2.74-1.29-6,.69a8.2,8.2,0,0,0-4.18,7.06,12,12,0,0,0,1.6,6,87.69,87.69,0,0,0,5.17,8.62,25.74,25.74,0,0,1,2.35,4.49c.41-.51.84-1.07,1.3-1.67q2.12-2.67,16.94-19.92A1.5,1.5,0,0,1,668.84,769.35ZM645.2,809.48a17.83,17.83,0,0,0,3-11.17,85.54,85.54,0,0,0-5.13,8.13,28.39,28.39,0,0,0-2.36,5.13,4.89,4.89,0,0,0-.26,2.17,5,5,0,0,0,2.05-1.18A14.66,14.66,0,0,0,645.2,809.48Z"/><path class="cls-1" d="M721,769.92a1.62,1.62,0,0,1,1.11.19,1.43,1.43,0,0,1,.68.91,1.13,1.13,0,0,1-.23,1.07,48.68,48.68,0,0,1-7.22,9.08,50.63,50.63,0,0,1-8.59,6.92,81.57,81.57,0,0,1-7.94,4.48,62.19,62.19,0,0,1-7.1,2.93,1.29,1.29,0,0,1-1.68-.61q-1.21,3-2.12,6a1.36,1.36,0,0,1-1.45,1h-.23a1.33,1.33,0,0,1-.87-.49,1.46,1.46,0,0,1-.34-.95q.08-1.76,3.68-18.09T696,750.43a1.54,1.54,0,0,1,.08-.46q1.29-5.46,2.13-8.81a102.83,102.83,0,0,1,6-17.9c2.26-4.94,4.19-7.56,5.82-7.87a1.83,1.83,0,0,1,2,.76q1.68,2.21-1.9,11.71A180.2,180.2,0,0,1,698.86,751q-4.11,17.25-7.75,34.12a47.65,47.65,0,0,1,4.1-7.14q5.92-8.28,9.43-7.22c1.52.45,2.3,1.8,2.35,4a15.2,15.2,0,0,1-.49,3.6,24.14,24.14,0,0,1-1.64,4.45,28.93,28.93,0,0,1-2.73,4.64q11.85-7,18-16.95A1.25,1.25,0,0,1,721,769.92Zm-30.13,22.76a17.58,17.58,0,0,0,5.13-2.92,19.77,19.77,0,0,0,4-4.22,27,27,0,0,0,2.51-4.45A19.75,19.75,0,0,0,703.8,777q.53-2.65,0-3.42a1.82,1.82,0,0,0-.8.27,12.32,12.32,0,0,0-2,1.74,29.7,29.7,0,0,0-3.35,4.07A66.78,66.78,0,0,0,690.88,792.68Zm18.54-73.11q-4.09,6.09-7.75,19.84Q708.29,726,709.42,719.57Z"/><path class="cls-1" d="M745.07,770.26a1.47,1.47,0,0,1,1.1.31,1.41,1.41,0,0,1,.57,1,1.31,1.31,0,0,1-.31,1.06,22.66,22.66,0,0,1-7.44,6.31,11.79,11.79,0,0,1-8.14,1.44,9.66,9.66,0,0,1-3,4.07,6.33,6.33,0,0,1-3.95,1.48h-.08a5.72,5.72,0,0,1-3.61-1.41,6.89,6.89,0,0,1-2.16-3.68,11.13,11.13,0,0,1,.34-7.11,9.89,9.89,0,0,1,3.84-5,1.26,1.26,0,0,1,1.21-.16,5.85,5.85,0,0,1,1.94-2.58,3.2,3.2,0,0,1,4,0,5.62,5.62,0,0,1,1.29,1.56,8.82,8.82,0,0,1,1,3.27,28.88,28.88,0,0,1,.15,5.24c-.05.51-.12,1-.22,1.52a9.08,9.08,0,0,0,6.42-1.44,20.62,20.62,0,0,0,6-5.32A1.49,1.49,0,0,1,745.07,770.26ZM723.94,783a3.57,3.57,0,0,0,2.24-1,7.43,7.43,0,0,0,1.94-2.66q-4.93-2.74-5.17-7.45a7.61,7.61,0,0,0-2.09,3.88,7.7,7.7,0,0,0,0,4.25Q721.74,783,723.94,783Zm4.94-7.07a20,20,0,0,0,0-3.16q-.12-1.32-.27-2.16a6.59,6.59,0,0,0-.38-1.37,3.11,3.11,0,0,0-.42-.76c-.12-.15-.21-.23-.26-.23h-.08c-.2,0-.46.17-.76.5a3.15,3.15,0,0,0-.68,1.33,5.08,5.08,0,0,0,.15,3.26,6.38,6.38,0,0,0,2.66,3Z"/><path class="cls-1" d="M772.12,770.53a1.54,1.54,0,0,1,1.1.19,1.43,1.43,0,0,1,.65.91,1.31,1.31,0,0,1-.15,1.07c-.61,1-1.27,2-2,3.07s-1.76,2.58-3.15,4.45-2.73,3.51-4,4.9a26.37,26.37,0,0,1-4.11,3.69,6.89,6.89,0,0,1-3.8,1.59,2.36,2.36,0,0,1-1.06-.22q-3.64-1.38-2-11.63a30.81,30.81,0,0,1-4.56,5.17q-3,2.5-5.17.61-2.05-1.68-1.86-5.93a17.86,17.86,0,0,1,2.47-8.21,1.38,1.38,0,0,1,.91-.68,1.46,1.46,0,0,1,1.14.15,1.38,1.38,0,0,1,.68.87,1.42,1.42,0,0,1-.15,1.1,14.06,14.06,0,0,0-1.78,4.49A12.54,12.54,0,0,0,745,780a3.33,3.33,0,0,0,.72,2c.26.25.74.07,1.45-.54a31.53,31.53,0,0,0,4.94-6l.8-1,.64-.83a3,3,0,0,1,.61-.65l.53-.34a.87.87,0,0,1,.61-.15,2.61,2.61,0,0,1,.68.19,1.74,1.74,0,0,1,1.07,1.71,13.7,13.7,0,0,1-.38,3.45,24.78,24.78,0,0,0-.65,6.39,19.79,19.79,0,0,0,.34,2.7c.1.33.23.49.38.49s.42.06.8-.11a7.78,7.78,0,0,0,1.37-.88,19.56,19.56,0,0,0,1.79-1.56c.65-.63,1.4-1.4,2.24-2.31s1.68-1.91,2.54-3,1.8-2.36,2.82-3.81,2-3,3-4.59A1.28,1.28,0,0,1,772.12,770.53Z"/><path class="cls-1" d="M833.83,742.3a1.31,1.31,0,0,1,.31,1.06,1.39,1.39,0,0,1-.61,1,1.34,1.34,0,0,1-1.75-.08q-3.64-1.29-51.22-.22-4.95,20.75-10,45-6.09,29.25-7.38,40.2a.68.68,0,0,1,.31.08,1.14,1.14,0,0,1,.83.72,1.32,1.32,0,0,1,0,1.1,14.85,14.85,0,0,1-.64,1.79,4.66,4.66,0,0,1-.8,1.14,1.54,1.54,0,0,1-1.14.57,2.27,2.27,0,0,1-.53-.08A1.74,1.74,0,0,1,760,833a11.61,11.61,0,0,1,.19-3.49q.3-3.19,1.37-9.2,1.91-11.4,5.7-29.64,5.09-24.61,10.26-46.51-5.17.07-12.85.3-12.15.32-14.28.31a1.43,1.43,0,0,1-1.45-1.44,1.56,1.56,0,0,1,.19-.73,1.5,1.5,0,0,1,.53-.53,1.56,1.56,0,0,1,.73-.19q2.13,0,14.21-.38l13.68-.3q2.43-10,4.33-17a1.4,1.4,0,0,1,.68-.91,1.45,1.45,0,0,1,1.11-.15,1.38,1.38,0,0,1,.87.68,1.51,1.51,0,0,1,.15,1.14q-1.81,6.76-4.18,16.19,22.8-.6,34.43-.45t14.63.49C832.3,741.35,833.48,741.74,833.83,742.3Z"/><path class="cls-1" d="M801,769.66a1.45,1.45,0,0,1,1.11.15,1.26,1.26,0,0,1,.64.91,1.61,1.61,0,0,1-.19,1.14,68,68,0,0,1-5.13,6.95,41.62,41.62,0,0,1-6.76,6.5q-3.76,2.9-6.35,2.89a3.89,3.89,0,0,1-1.59-.3q-5.1-2.21-1.07-17.86a1.36,1.36,0,0,1,.69-.91,1.4,1.4,0,0,1,2,.53,1.34,1.34,0,0,1,.15,1.06c-.6,2.43-1,4.57-1.33,6.42a26.66,26.66,0,0,0-.38,4.22,10.24,10.24,0,0,0,.31,2.4,3.18,3.18,0,0,0,.45,1.13,1.27,1.27,0,0,0,.35.27q2,.84,7.18-3.95a51.35,51.35,0,0,0,9-11A1.85,1.85,0,0,1,801,769.66Zm-16.83-5.93c-1.47-.1-1.93-.71-1.37-1.83a3.81,3.81,0,0,1,2-1.82q1.89-.6,2.28,1a1.86,1.86,0,0,1-1.14,2.28A3.92,3.92,0,0,1,784.13,763.73Z"/><path class="cls-1" d="M823.53,770.57a1.31,1.31,0,0,1,1.11,0,1.59,1.59,0,0,1,.76.83,1.24,1.24,0,0,1-.08,1.11q-2,4.32-11.32,34.35-6.16,19.68-8.67,27.13-2,6-3.19,9a18.46,18.46,0,0,1-1.56,3.23,1.85,1.85,0,0,1-1.55,1h-.38c-.77-.2-1.21-.83-1.33-1.9a11.65,11.65,0,0,1,.18-3.57q.32-2.35,4.37-26.86t6.43-37.44q-2.74,3.66-5.17,6.31-3.35,3.57-5.7,2a3.64,3.64,0,0,1-1.44-2.59,11.06,11.06,0,0,1,.11-4,20.43,20.43,0,0,1,1.4-4.36,18.31,18.31,0,0,1,6.39-7.83,11.18,11.18,0,0,1,9.65-1.45,1.44,1.44,0,0,1,.91.65,1.36,1.36,0,0,1,.16,1.1,1.53,1.53,0,0,1-.35.68,1.1,1.1,0,0,1-.64.38,1.63,1.63,0,0,1-.76,0,7.09,7.09,0,0,0-3.5-.3,13.31,13.31,0,0,0-2.92.84,7.81,7.81,0,0,0-2.36,1.56,13.8,13.8,0,0,0-1.75,1.89c-.43.59-.85,1.21-1.25,1.87a16.47,16.47,0,0,0-1.75,4,10.92,10.92,0,0,0-.57,3.26,6.35,6.35,0,0,0,.27,1.87,6.34,6.34,0,0,0,2-1.6,105.2,105.2,0,0,0,7.22-9c.76-1,1.27-1.73,1.52-2.13a1.47,1.47,0,0,1,2.59,1.22q-3.36,16.94-11.18,65.43,2.75-7.83,10-31.16,9.42-30.24,11.47-34.73A1.7,1.7,0,0,1,823.53,770.57Z"/><path class="cls-1" d="M851.24,770.53a1.55,1.55,0,0,1,1.1.19,1.42,1.42,0,0,1,.64.91,1.27,1.27,0,0,1-.15,1.07c-.61,1-1.26,2-2,3.07s-1.76,2.58-3.16,4.45a61.38,61.38,0,0,1-4,4.9,25.86,25.86,0,0,1-4.1,3.69,6.92,6.92,0,0,1-3.8,1.59,2.41,2.41,0,0,1-1.07-.22q-3.65-1.38-2-11.63a30.81,30.81,0,0,1-4.56,5.17c-2,1.67-3.7,1.87-5.17.61s-2-3.1-1.86-5.93a17.86,17.86,0,0,1,2.47-8.21,1.4,1.4,0,0,1,.91-.68,1.46,1.46,0,0,1,1.14.15,1.36,1.36,0,0,1,.69.87,1.42,1.42,0,0,1-.15,1.1,14.08,14.08,0,0,0-1.79,4.49,12.2,12.2,0,0,0-.3,3.91,3.2,3.2,0,0,0,.72,2q.38.38,1.44-.54a31.15,31.15,0,0,0,4.94-6l.8-1,.65-.83a3.05,3.05,0,0,1,.6-.65l.54-.34a.85.85,0,0,1,.6-.15,2.67,2.67,0,0,1,.69.19,1.73,1.73,0,0,1,1.06,1.71,13.25,13.25,0,0,1-.38,3.45,24.23,24.23,0,0,0-.64,6.39,18.2,18.2,0,0,0,.34,2.7c.1.33.23.49.38.49s.42.06.8-.11a7.75,7.75,0,0,0,1.36-.88,18.31,18.31,0,0,0,1.79-1.56c.66-.63,1.41-1.4,2.24-2.31s1.69-1.91,2.55-3,1.8-2.36,2.81-3.81,2-3,3-4.59A1.29,1.29,0,0,1,851.24,770.53Z"/><path class="cls-1" d="M873.88,769.92a1.44,1.44,0,0,1,1.11.23,1.38,1.38,0,0,1,.57,1,1.55,1.55,0,0,1-.23,1.07q-8.6,12-15.66,17a9.61,9.61,0,0,1-5.55,2A6.16,6.16,0,0,1,850.4,790a6.6,6.6,0,0,1-1.63-1.82,11.29,11.29,0,0,1-1.26-3.19,15.86,15.86,0,0,1-.19-5.4A38.11,38.11,0,0,1,849,772v-.07a35.61,35.61,0,0,1,5.17-11q3-4,5.47-4.1a2.06,2.06,0,0,1,2.28,1.52q.84,2.21-2,6.23a47.57,47.57,0,0,1-8.29,8.66,37.47,37.47,0,0,0-1.29,5.48,19.22,19.22,0,0,0-.27,4,9.31,9.31,0,0,0,.54,2.58,6.42,6.42,0,0,0,.76,1.56,3.75,3.75,0,0,0,.72.76q2.28,1.67,5.85-.91,6.69-4.71,14.9-16.27A1.66,1.66,0,0,1,873.88,769.92Zm-14.74-9.84q-2.65,1.68-5.24,7.22Q858.3,762.89,859.14,760.08Z"/><path class="cls-2" d="M242.53,603.31c-4.15-.68-14.32-101,9.81-235.85s35-194.14,98.67-246.21,181-13.5,222.11,46.93,54.64,105.43,56.57,172.28.65,152.84-5.14,262.85C624.55,603.31,458.85,638.75,242.53,603.31Z"/><path class="cls-1" d="M369,619.82a1,1,0,0,1-1-.86c-5.9-41.35,12.33-70.1,24.39-89.12,1.19-1.88,2.34-3.68,3.4-5.4,11.13-18.06,17.65-31.67,22.37-55.92,3.9-20.09-1-55.43-13.81-99.49-11.3-38.92-43.54-49.74-67.72-47.18-28.54,3-60,16.62-62.75,45.71-3.34,35.61,12.16,87.92,17,103.1,4.33,13.61,10.21,29.65,15.9,45.16,6.14,16.73,11.94,32.54,15.28,43.9,6.41,21.79,3.28,50.57,3.25,50.85a1,1,0,1,1-2-.22c0-.28,3.12-28.66-3.18-50.07-3.32-11.29-9.11-27.07-15.24-43.77C299.23,501,293.33,484.92,289,471.27c-6.23-19.58-20.36-68.89-17.08-103.9,2.84-30.29,35.2-44.4,64.53-47.51a65.73,65.73,0,0,1,41.17,8.9c13.66,8.4,23.58,22.13,28.69,39.71,7.46,25.69,19.19,72.91,13.84,100.43-4.78,24.55-11.37,38.32-22.63,56.59q-1.61,2.58-3.41,5.42c-11.91,18.78-29.9,47.15-24.1,87.77a1,1,0,0,1-.84,1.13Z"/><path class="cls-1" d="M395.37,614.36a1,1,0,0,1-1-.83c-.07-.4-6.83-39.61-13.82-74.23-2.45-12.14-4.62-24.59-6.72-36.62-3.83-21.94-7.14-40.89-10.19-46-1.45-2.41-2.91-3.63-4-3.35h-.06a124.53,124.53,0,0,1,2.7,12.31c4.08,24.79,9,67.15,7.72,82.21-.46,5.26-1.73,7.85-3.89,7.91h-.07c-4.22,0-8.09-11-9.6-21.35-2.6-17.89-2.57-61.93-2.26-71.22.17-5,1.31-8.8,3.1-10.66-1.71-6.07-3.72-11.68-5.69-17.17-4-11.12-7.76-21.62-9-35-.41-4.54-.78-9.21-1-13.92-11.25-25.9-14.63-41.67-9.52-57.51,3.6-11.17,14.74-20.85,25.51-30.22,8.59-7.46,16.7-14.52,19.52-21.29A49.35,49.35,0,0,0,380.7,262a54.89,54.89,0,0,1-14.12,10.21,29,29,0,0,1-13.35,3.7c-11.21,0-18.75-8.93-25.53-18.47a26.5,26.5,0,0,0-8.32-7.67c-3.78-2.48-8.2-5.39-14.8-14.66A103.91,103.91,0,0,1,300.85,253l-1.4,4.17-.54-4.37c0-.12-1.34-11.16-2.06-29.9-.75-1.31-1.52-2.68-2.32-4.13-4.3-7.82-7.79-14.71-10.4-20.52a64.54,64.54,0,0,1,1.34,9c.67,7.89.68,16.2.68,25,0,12.14,0,24.7,1.89,36.31,3.15,19.56,14.27,44.5,14.39,44.75l3.24,7.22-4.94-6.19c-.19-.24-19.19-24.42-22.71-59s-6.38-52.16-16.36-88.23c-10.69-38.63-2-96.34,31.15-126,15.7-14.08,40.59-24.3,68.32-28a157.11,157.11,0,0,1,16.45-1.36A31.73,31.73,0,0,1,397.47.37c12-1.78,26.84,3,39.73,12.72,14,10.56,23.65,25.15,27.29,41.08,3.34,14.61,6,29.74,2.74,41.44C464.09,106.94,455.75,114.37,441,119c-13.62,4.26-21.13,3.28-29.09,2.25a81.89,81.89,0,0,0-13.39-.95c8.57,5.33,19.3,9.92,33.18,9.92,22.27,0,31.21-13.85,31.3-14l1.25-2,.57,2.3c5.35,21.93-.56,49.68-13,67.83,2.81,15.16,8.69,39.7,19.26,54.62,16.56,23.38,31.86,26.31,44.9,27.22a1,1,0,0,1,.92,1.07,1,1,0,0,1-1.06.92c-14.49-1-30.13-5.1-46.39-28.06-10.34-14.59-16.26-38.1-19.24-53.53A50.29,50.29,0,0,1,440,197c-12.5,9.22-32,4.18-52.27-5.71-5.13-.51-10.38-1.31-16-2.17l-1.94-.3c-22.68-3.47-36.06-13.16-45-19.79a31.72,31.72,0,0,0,2.33,9.1,119.64,119.64,0,0,0,6.05,12.16c4.13,7.48,6.86,12.43,2.48,17.78-2.32,2.83-4.76,2.85-6.41,2.37-4.89-1.42-9.1-9.1-9.82-15.09-.39-3.24-4-6.84-7.74-10.64-5-5-10.67-10.73-11.23-17.69-.34-4.16.65-6.95,3-8.28,4.94-2.88,13.71,2.4,17.25,4.8.65.45,1.34.93,2,1.45a28.8,28.8,0,0,1,2.38-10.17c-11.47-5.55-19.12-7.18-23.16-5-7.16,3.88-5.3,14.48,1.14,44.55a121.19,121.19,0,0,1,1.8,37.82c7.11,10.44,11.68,13.45,15.55,16a28.64,28.64,0,0,1,8.85,8.18c9,12.7,18.58,23.34,36.33,14.16a51.54,51.54,0,0,0,15.24-11.59c0-.91.08-1.8.11-2.68.21-5.32.38-9.91,2.54-14.22,3.24-6.49,4.37-8,5.78-7.66s1.58,2.16,1.58,6.18c0,5.31-2.31,12.36-8.05,19.15a53.2,53.2,0,0,1-3.92,18.52c-3,7.21-11.29,14.41-20.06,22-10.56,9.19-21.48,18.68-24.91,29.32-4.6,14.26-2,28.64,7.34,51.16-.84-23,1.41-45.54,14-53.91,5.92-3.94,13.19-5,21-3.19,15,3.56,30.24,17.26,41.81,37.6,18.37,32.31,20.25,88.27,16.17,104.24-.34,1.31-.65,2.6-1,3.86-2.07,8.49-3.86,15.83-9.14,18.56-3.3,1.7-7.69,1.43-13.42-.84-16.06-6.36-39.36-37.47-59.35-79.25-2.75-5.74-5.24-11.06-7.48-16,.21,2.85.44,5.67.7,8.44,1.19,13.16,4.92,23.55,8.86,34.54,1.92,5.36,3.88,10.82,5.58,16.73l.09,0c1.45-.37,3.7.06,6.22,4.26,3.25,5.42,6.43,23.62,10.45,46.67,2.1,12,4.26,24.46,6.71,36.58,7,34.65,13.76,73.88,13.83,74.28a1,1,0,0,1-.82,1.15ZM358,455a19.32,19.32,0,0,0-1.77,8.27c-.31,9.25-.34,53.1,2.24,70.86,1.86,12.76,6,19.64,7.62,19.64h0c.5,0,1.54-1.3,2-6.08,1.29-14.9-3.64-57-7.71-81.72C359.68,462.12,358.87,458.48,358,455ZM343.55,386c2.75,6.31,6,13.24,9.65,20.94,19.49,40.71,42.91,72.16,58.29,78.25,5.16,2,9,2.34,11.76.92,4.47-2.31,6.16-9.24,8.12-17.26.31-1.26.63-2.56,1-3.87,4-15.74,2.15-70.88-16-102.76-11.29-19.86-26.07-33.22-40.53-36.65-7.27-1.72-14-.71-19.44,2.92C343.63,337,342.19,361.69,343.55,386ZM376,13.71C348.43,14.79,314.94,24,294.15,42.6c-32.54,29.19-41.09,86-30.57,124,10,36.21,12.9,53.87,16.43,88.56,2.24,22,10.84,39.72,16.68,49.54-3.59-9.19-8.65-23.51-10.63-35.78-1.89-11.76-1.9-24.4-1.91-36.62,0-8.76,0-17-.67-24.85-1-11.5-3.7-16.77-6.86-22.87a78,78,0,0,1-5.95-13.88c-5.26-16.82,2.85-43.95,32.81-66.66,35.79-27.12,80.47,5.77,80.92,6.1l2.51,1.91c2.63,2,5.5,4.19,8.7,6.34a79.07,79.07,0,0,1,16.55.84c7.73,1,15,2,28.23-2.17,28.74-9,30-28.1,22.15-62.47C455,21.45,420.9-1.1,397.77,2.34a29.12,29.12,0,0,0-17.49,9.31c17-.17,31.2,2.85,38.52,8.52,19.62,15.19,33.42,30.4,37,55.29,2.51,17.33.49,30.06-5.28,33.23-2,1.08-5.24,1.52-9.86-2.43-4-3.41-7.52-8.47-10.37-14.36a54.52,54.52,0,0,1-9.62,8.31c-7.44,5.14-16.7,5.76-26.06,1.75-14-6-24.83-20.95-27.57-38.09C364,44.37,367.29,25.62,376,13.71Zm12.74,223.05a49.17,49.17,0,0,0-3.4,6.11c-2,3.92-2.13,8.31-2.33,13.39,4.18-5.69,5.9-11.37,5.9-15.76A28.22,28.22,0,0,0,388.74,236.76ZM299,226.58c.41,9.21.95,16.25,1.35,20.67a121.28,121.28,0,0,0,2.51-14.59C301.65,230.85,300.37,228.84,299,226.58Zm-.18-4.22c1.55,2.67,3,5,4.35,7.14a118.34,118.34,0,0,0-2-34.76c-6.83-31.86-8.59-42.15-.14-46.73,4.6-2.49,12.74-.91,25,5,5.93-11.61,19.64-21.09,40.77-28.18,10.85-3.65,19.07-5.4,25.7-6.12-2.43-1.71-4.68-3.43-6.77-5l-2.5-1.9c-.44-.32-43.91-32.33-78.51-6.11-29.19,22.12-37.16,48.33-32.11,64.48a76.73,76.73,0,0,0,5.82,13.55l.88,1.71c-1.06-4-1.07-6.62,0-7.68a2.21,2.21,0,0,1,2.79-.1c3.46,2.07,15.9,16.59,16.56,39.4C298.71,218.85,298.77,220.64,298.83,222.36Zm-18.16-43.2h0s-3.33,4.25,15.62,38.68l.42.76c0-.51,0-1,0-1.54-.63-22-12.33-35.79-15.59-37.74A.83.83,0,0,0,280.67,179.16Zm26.23-19.3a4.78,4.78,0,0,0-2.43.56c-1.57.91-2.23,3.06-2,6.39.51,6.23,5.9,11.65,10.65,16.44,4,4.05,7.84,7.88,8.31,11.81.63,5.26,4.44,12.26,8.4,13.41,1.58.46,3-.1,4.3-1.71,3.52-4.31,1.32-8.3-2.68-15.56a120.17,120.17,0,0,1-6.15-12.35,33.33,33.33,0,0,1-2.59-11.44c-1.11-.83-2.17-1.59-3.15-2.26C314.55,161.72,310,159.86,306.9,159.86Zm86.61,31.8c17.62,7.88,34.6,11.57,45.3,3.68a49.69,49.69,0,0,0,10.9-11.43c-.91-5-1.48-8.94-1.76-11C425.67,189,409.84,192.42,393.51,191.66Zm-5-2.35c18.51,1.78,34.67-.63,59.63-19.05l1.4-1,.19,1.72c0,.13.5,4.25,1.6,10.57,11-17.07,16.26-42,12-62.44-3.31,4-12.94,13.12-31.65,13.12-15.73,0-27.45-5.65-36.62-11.75-6.91.51-15.63,2.19-27.67,6.24-20.6,6.91-33.91,16-39.6,27.16a286,286,0,0,1,27.29,16A319.66,319.66,0,0,0,388.5,189.31Zm-63.76-22.92.77.57c8.74,6.52,22,16.37,44.62,19.84l1.94.29c3.66.57,7.15,1.1,10.53,1.55-9.72-5.1-19.48-11.12-28.6-17A288.55,288.55,0,0,0,327,155.65,26.69,26.69,0,0,0,324.74,166.39Zm107-76.12c2.78,6,6.3,11.07,10.27,14.47,3,2.57,5.55,3.32,7.59,2.2,4.86-2.68,6.58-15.21,4.27-31.19-3.52-24.31-16.49-38.68-36.27-54-7.31-5.66-21.88-8.5-39-8.12-.32.4-.63.81-.94,1.23C369.22,26.35,366,44.55,369,63.56c2.63,16.48,13,30.83,26.38,36.57,8.7,3.72,17.27,3.17,24.13-1.56a51.62,51.62,0,0,0,9.84-8.67c-4.88-11-7.34-24.44-5.76-35.33,1.66-11.41,7.24-12,8.92-11.87,4.34.26,8.95,5.54,9.14,13.92C441.94,67.39,440.71,79.36,431.72,90.27Zm.47-45.58c-3.15,0-5.66,3.86-6.58,10.17-1.49,10.27.72,22.87,5.18,33.34,8-10.25,9.14-21.44,8.9-31.54-.16-7.12-3.9-11.76-7.26-12Z"/><path class="cls-1" d="M602.69,609.4h-.13a1,1,0,0,1-.86-1.12c0-.1,1.26-9.62,0-25.69-1-12.32-4.34-31.94-8.24-54.65-1.28-7.47-2.62-15.31-4-23.38-.8-4.79-1.32-9.38-1.61-13.67-2.68,5.36-5.86,11.85-9,19.67-.49,1.21-1,2.54-1.59,4C566,542.67,539.68,608.59,513,609.37c-25,.74-26.5-13.78-29.75-45.58-.45-4.41-.91-9-1.48-14q-.44-3.8-.8-7.76a528.18,528.18,0,0,1-21.23,66.68,1,1,0,0,1-1.31.55,1,1,0,0,1-.54-1.3c.16-.4,14.21-35.07,22.52-72.4-3.87-49-1.48-111.51-.58-130.9q.31-6.76.46-12.68c-3-8.73-5.75-15.84-8.15-22-5.31-13.59-8.82-22.57-8.06-33.48.5-7,2.22-10.67,5.14-10.89h.26c4,0,8,6.92,9.11,12,1.41,6.33,4.5,20.22,3.7,54.05,1.72,5.06,3.49,10.66,5.29,16.93,10.87,37.89,6.21,64.3-.23,100.85q-1,5.55-2,11.45c-.84,4.93-1.83,9.88-2.92,14.79.38,4.77.82,9.41,1.32,13.86.57,5,1,9.57,1.49,14,3.3,32.36,4.51,44.48,27.7,43.78,25.33-.74,51.34-65.8,62.44-93.59.57-1.43,1.11-2.76,1.59-4,3.57-8.86,7.17-16,10-21.75l.61-1.21c-.57-16,2.19-27,5.46-27.59,1.5-.26,2.57,1.12,3.15,4.13,1.44,7.37-1.68,14.11-6.6,23.91a137.44,137.44,0,0,0,1.78,16.94c1.35,8.06,2.69,15.89,4,23.36,3.91,22.77,7.29,42.42,8.26,54.83,1.28,16.31,0,25.72,0,26.11A1,1,0,0,1,602.69,609.4ZM482.16,397.58c-.08,2.32-.17,4.72-.29,7.22-.86,18.45-3.07,76.05.08,123.74.52-2.64,1-5.29,1.47-7.92q1-5.93,2-11.47c6.4-36.29,11-62.5.28-99.95C484.5,405.05,483.32,401.19,482.16,397.58Zm111.25,63.67c-1.49.78-3.84,8.67-3.82,21.71,3.72-7.63,5.87-13.32,4.73-19.2A5.2,5.2,0,0,0,593.41,461.25ZM469.52,327.64h-.11c-.63,0-2.72.83-3.29,9-.74,10.46,2.71,19.27,7.92,32.61,1.93,4.93,4.09,10.46,6.39,16.94.36-29.65-2.44-42.22-3.75-48.12C475.53,332.93,471.89,327.64,469.52,327.64Z"/><path class="cls-1" d="M574.89,607.61l-.16,0a1,1,0,0,1-.83-1.15c0-.22,3.65-22.15,8.31-46.31.75-3.9,1.76-8.91,2.95-14.85,6.16-30.78,17.63-88.09,24.47-142.8,7.17-57.41,5.09-92.2-6.21-103.4-3.33-3.3-7.37-4.58-12.38-3.91-27,3.61-45.31,10.53-55.15,21-1.12,24.92,4.94,52.94,19.53,92.08,16.16,43.39,15.44,73.79,15.43,74.09l-.08,2.59-1.68-2c-8.8-10.35-11.52-18.17-24.58-55.74l-3.83-11c-16.38-47-19.33-56.67-15-83.63a32.87,32.87,0,0,1,8.3-17.25,125.05,125.05,0,0,1,1.56-14.47,41,41,0,0,1,20.35-29.66c11-6.38,25-8.21,35-4.54,19.1,7,33.16,26.12,45.6,61.89,1.71,4.9,3.29,9.37,4.77,13.57,10.31,29.14,16,45.2,23.13,93.93,8.39,57.18,4.9,110.81,3,131.21-2.09,22.61,2.26,35.45,2.31,35.58a1,1,0,0,1-1.89.66c-.19-.54-4.55-13.33-2.41-36.42,1.88-20.33,5.36-73.77-3-130.73-7.12-48.55-12.44-63.59-23-93.56-1.49-4.2-3.07-8.68-4.78-13.58-12.06-34.68-26.17-54-44.4-60.68-7.83-2.88-21.17-2.65-33.29,4.4a39.1,39.1,0,0,0-19.38,28.26c-.65,3.94-1.12,7.91-1.4,12,10.49-9.91,28.62-16.5,54.71-20a16,16,0,0,1,14.06,4.47c11.92,11.83,14.14,46.2,6.78,105.07-6.85,54.78-18.33,112.13-24.49,142.94-1.19,5.93-2.19,10.94-3,14.84-4.65,24.13-8.26,46-8.29,46.26A1,1,0,0,1,574.89,607.61Zm-41.09-289a30.74,30.74,0,0,0-6.19,14.29c-4.22,26.56-1.59,35.19,15,82.65q2.05,5.9,3.83,11c12,34.56,15.2,43.75,22.43,52.92-.24-8.4-2.07-35.06-15.29-70.53C539.35,370.86,533.18,343.18,533.8,318.62Z"/><path class="cls-1" d="M140,634l2.94-.08,3.25-.07,3.29,0h3a49.12,49.12,0,0,1,8.28.63,19.53,19.53,0,0,1,6.17,2,10.18,10.18,0,0,1,3.83,3.57,9.85,9.85,0,0,1,1.33,5.23,11.94,11.94,0,0,1-1.07,5.17,13.23,13.23,0,0,1-2.81,3.9,16.19,16.19,0,0,1-4,2.76,23.5,23.5,0,0,1-4.48,1.73,23.3,23.3,0,0,1,6.16,1.22,16.46,16.46,0,0,1,5,2.72,12.74,12.74,0,0,1,3.37,4.12,11.64,11.64,0,0,1,1.25,5.45,15.2,15.2,0,0,1-1.79,7.6,14.88,14.88,0,0,1-4.79,5.15,21.41,21.41,0,0,1-6.89,2.89,35,35,0,0,1-8.06.92c-1.49,0-2.84,0-4.06-.07l-3.53-.13-3.38-.13c-1.11,0-2.3-.06-3.55-.06-.43,0-1,0-1.83,0l-2.46.06-2.44.09-1.77.09v-2.18l3-.35a7.51,7.51,0,0,0,1.48-.28,2.42,2.42,0,0,0,1-.68,3.1,3.1,0,0,0,.65-1.31,11.54,11.54,0,0,0,.3-2.18c.09-1.33.14-3.27.16-5.81s0-5.84,0-9.88V653.05c0-1.25,0-2.57,0-4s-.06-2.68-.1-3.88-.09-2.2-.13-3.05-.09-1.35-.11-1.52a14.66,14.66,0,0,0-.44-2.25,3.6,3.6,0,0,0-.68-1.33,2.05,2.05,0,0,0-1.08-.65,8,8,0,0,0-1.64-.22l-2.75-.17v-2.27l2.6.09,2.57.09,2.31.06C138.91,634,139.51,634,140,634Zm11.16,23.71a19.25,19.25,0,0,0,4.48-.54,10.77,10.77,0,0,0,4.06-1.9,10.25,10.25,0,0,0,2.92-3.57,12.41,12.41,0,0,0,1.13-5.62,8.46,8.46,0,0,0-1.28-5,8.56,8.56,0,0,0-3.16-2.75,12.24,12.24,0,0,0-4.06-1.19,32.16,32.16,0,0,0-3.92-.27l-1.77,0-2,.07-2.31.09v20.61Zm-5.89,26.89a23.17,23.17,0,0,0,4,.72,56.28,56.28,0,0,0,5.64.24,15.41,15.41,0,0,0,5-.78,10.72,10.72,0,0,0,6.67-6.34,14.92,14.92,0,0,0,1-5.6,14.28,14.28,0,0,0-1-5.76,8.9,8.9,0,0,0-3-3.68,12.23,12.23,0,0,0-4.66-1.94,30.55,30.55,0,0,0-6.19-.57c-1.39,0-2.65,0-3.77.09s-2.33.15-3.64.26Z"/><path class="cls-1" d="M218.86,634q5.92,0,9.77-.06a36.23,36.23,0,0,0,5.66-.42l1.09.57v13.08l-2.87.13a35.85,35.85,0,0,0-1.38-5.74,5.48,5.48,0,0,0-2.55-3.37,13.1,13.1,0,0,0-3.48-.74,50.63,50.63,0,0,0-5.63-.26H211c-.06,1.51-.1,3.66-.13,6.47s0,6.44,0,10.91v4.32h20.88l.26.61c-.23.49-.43,1-.61,1.46s-.36,1-.56,1.72c-2.91-.23-5.55-.37-7.94-.41s-4.49-.07-6.32-.07h-5.71v23.06h12a45,45,0,0,0,5.26-.26,12.9,12.9,0,0,0,3.24-.74A5,5,0,0,0,233,683a7.92,7.92,0,0,0,1.18-1.77,13.34,13.34,0,0,0,.81-2.09,17.39,17.39,0,0,0,.5-2.25l.35-2.35,3.05.17L238,688.53l-1,.48a40.11,40.11,0,0,0-5.36-.4q-3.52-.08-9.37-.08H208.58l-1.22,0-2.18,0-2.7.07-2.79.06-2.47,0-1.67,0v-2.27l4.66-.35a4.9,4.9,0,0,0,1.37-.24,1.57,1.57,0,0,0,.85-.69,3.6,3.6,0,0,0,.44-1.31,17.11,17.11,0,0,0,.17-2.12c.06-1.24.11-3.16.16-5.75s.06-5.9.06-9.94V653.05c0-1.25,0-2.57,0-4s-.07-2.68-.11-3.88-.09-2.2-.13-3.05-.08-1.35-.11-1.52a17.41,17.41,0,0,0-.26-2.18,4.16,4.16,0,0,0-.5-1.33,1.79,1.79,0,0,0-.85-.7,4.58,4.58,0,0,0-1.31-.24l-2.79-.17v-2.27l1.24,0,2,0,2.42.06,2.4.07,2,0c.57,0,.95,0,1.15,0Z"/><path class="cls-1" d="M320.4,637.19c-.06,1.51-.1,3.66-.13,6.47s0,6.44,0,10.91V661h21l.26.61c-.23.5-.44,1-.61,1.46s-.36,1.06-.57,1.72c-2.9-.23-5.58-.37-8-.41s-4.57-.07-6.4-.07h-5.71v6.06c0,1.89,0,3.59,0,5.1s0,2.81.06,3.9.06,1.91.09,2.46a9.61,9.61,0,0,0,.35,2.14,3.28,3.28,0,0,0,.74,1.33,2.57,2.57,0,0,0,1.18.7,9.39,9.39,0,0,0,1.65.28c.7.06,1.44.11,2.21.15s1.51.08,2.24.11v2.27l-3-.09-3.51-.09-3.44-.06c-1.11,0-2,0-2.79,0-.29,0-.87,0-1.72,0l-2.83.06-3.1.09-2.51.09v-2.27l3.84-.26A4.31,4.31,0,0,0,311,686a1.67,1.67,0,0,0,.81-.72,4,4,0,0,0,.41-1.35,17.92,17.92,0,0,0,.18-2.12c.05-1.24.1-3.16.15-5.75s.06-5.9.06-9.94V653.05c0-1.25,0-2.57,0-4s-.07-2.68-.11-3.88-.09-2.2-.13-3.05-.08-1.35-.11-1.52c-.12-.93-.23-1.68-.35-2.25a3.79,3.79,0,0,0-.48-1.33,1.54,1.54,0,0,0-.82-.65,5.45,5.45,0,0,0-1.44-.22l-2.62-.17v-2.27l1.24,0,2,0,2.4.06,2.37.07,2,0c.57,0,1,0,1.16,0h10.55q5.79,0,9.26-.06a33.32,33.32,0,0,0,5.29-.42l1.05.57c0,.44,0,1.18,0,2.25s0,2.22.07,3.5.05,2.58.06,3.9,0,2.47,0,3.43l-3,.13a37.21,37.21,0,0,0-1.33-5.69,5.81,5.81,0,0,0-2.6-3.42,12.13,12.13,0,0,0-3.11-.74,39.58,39.58,0,0,0-5.12-.26Z"/><path class="cls-1" d="M361.52,662.86a26.12,26.12,0,0,1,1.29-8.26,29,29,0,0,1,3.55-7.24,29.5,29.5,0,0,1,5.41-6,35,35,0,0,1,6.84-4.53,36.2,36.2,0,0,1,7.84-2.88,35.73,35.73,0,0,1,8.46-1,28.86,28.86,0,0,1,7.63,1,28.32,28.32,0,0,1,6.69,2.74,26.42,26.42,0,0,1,5.53,4.25,26.93,26.93,0,0,1,6.89,12,27.54,27.54,0,0,1,.93,7.17,26.13,26.13,0,0,1-1.24,8.17,27.29,27.29,0,0,1-3.46,7,28.44,28.44,0,0,1-5.3,5.78,33.48,33.48,0,0,1-6.73,4.33,36.23,36.23,0,0,1-7.76,2.73,37.9,37.9,0,0,1-8.41.93,30.85,30.85,0,0,1-11.44-2,27.26,27.26,0,0,1-8.89-5.61,24.91,24.91,0,0,1-5.78-8.32A25.82,25.82,0,0,1,361.52,662.86Zm8.41-2.36a27.38,27.38,0,0,0,1.2,8.48,23.9,23.9,0,0,0,3.12,6.41,20.61,20.61,0,0,0,4.34,4.57,24.2,24.2,0,0,0,4.9,3,23.82,23.82,0,0,0,4.77,1.59,19.56,19.56,0,0,0,3.9.48,31.67,31.67,0,0,0,4-.31,25,25,0,0,0,4.79-1.15,23.56,23.56,0,0,0,4.91-2.38,16.85,16.85,0,0,0,4.33-4,20.45,20.45,0,0,0,3.12-6,26.35,26.35,0,0,0,1.2-8.43,29.73,29.73,0,0,0-.94-7.67,25.4,25.4,0,0,0-2.59-6.3,22.5,22.5,0,0,0-3.93-4.94,23.48,23.48,0,0,0-4.86-3.56,23.31,23.31,0,0,0-11.09-2.85,25.32,25.32,0,0,0-7.67,1.2,17.94,17.94,0,0,0-6.78,3.92,19.86,19.86,0,0,0-4.83,7.15A28.07,28.07,0,0,0,369.93,660.5Z"/><path class="cls-1" d="M457.2,681.81a11.52,11.52,0,0,0,.33,2.27,3.08,3.08,0,0,0,.7,1.35,2.46,2.46,0,0,0,1.13.68,7.34,7.34,0,0,0,1.68.24l4.45.17v2.27c-.64,0-1.53,0-2.66,0l-3.56-.08-3.63-.09c-1.2,0-2.17,0-2.92,0-.44,0-1.12,0-2.05,0l-3,.09-3.23.08c-1.07,0-2,0-2.7,0v-2.27l4-.35a3.39,3.39,0,0,0,2.4-.93,5.89,5.89,0,0,0,.95-3.43c.06-1.24.13-3.16.2-5.75s.11-5.9.11-9.94V653.05c0-1.25,0-2.57,0-4s-.07-2.68-.11-3.88-.09-2.2-.13-3.05-.08-1.35-.11-1.52a16.38,16.38,0,0,0-.42-2.25,3.75,3.75,0,0,0-.63-1.33,2,2,0,0,0-1-.65,7.24,7.24,0,0,0-1.59-.22l-2.84-.17v-2.27c.53,0,1.18,0,2,0l2.4.08,2.35.09c.76,0,1.37,0,1.84,0,1.45,0,2.8,0,4.05,0l3.7-.11,3.75-.13c1.28,0,2.69-.07,4.23-.07a29.67,29.67,0,0,1,8.19,1,17.45,17.45,0,0,1,5.78,2.74,11.1,11.1,0,0,1,3.4,4.12,12,12,0,0,1,1.11,5.12,18.85,18.85,0,0,1-1.05,6.58,16.34,16.34,0,0,1-2.79,4.93,16.78,16.78,0,0,1-4.07,3.53,26.51,26.51,0,0,1-4.86,2.35,38.6,38.6,0,0,1,3.22,3.47q1.57,1.89,3.4,4.25c1.25,1.62,2.56,3.3,3.93,5a48.26,48.26,0,0,0,4.22,4.68,24.81,24.81,0,0,0,4.43,3.47,8.72,8.72,0,0,0,4.55,1.35h1l.09,2a36,36,0,0,1-3.88.74,31.5,31.5,0,0,1-4,.26,10.73,10.73,0,0,1-4.22-.83,15.06,15.06,0,0,1-3.84-2.4,29.12,29.12,0,0,1-3.75-3.83q-1.87-2.26-4-5.19c-.32-.49-.64-.94-.94-1.35l-.94-1.22c-1.39-2-2.72-3.8-4-5.38a28.78,28.78,0,0,0-3.36-3.69l-7.41.26v6.09c0,1.75,0,3.29,0,4.62s0,2.42.07,3.31S457.18,681.26,457.2,681.81ZM457,662.25l1.61.08,1.83.07,1.72,0h1.33q6.72-.09,9.92-3.64t3.2-10.44a11.88,11.88,0,0,0-1.07-5.29,9.44,9.44,0,0,0-3-3.6A13,13,0,0,0,468,637.4a24.2,24.2,0,0,0-5.77-.65h-1.44c-.55,0-1.09,0-1.61,0-.32,0-.64.05-1,.05h-1c0,.84-.06,1.93-.09,3.26s-.05,2.77-.08,4.28-.05,3-.07,4.55,0,2.9,0,4.12Z"/><path class="cls-1" d="M572.89,688.53c-.26,0-.63,0-1.09,0l-1.57,0-1.85,0-1.94,0-4.88.13v-2.27l4.1-.26a7.94,7.94,0,0,0,1.63-.22,2.09,2.09,0,0,0,1.09-.63,2.92,2.92,0,0,0,.63-1.31,12.3,12.3,0,0,0,.31-2.29c0-.72,0-1.47.08-2.24s.06-1.69.09-2.77,0-2.36.07-3.88,0-3.35,0-5.53c-.64-1.16-1.22-2.2-1.75-3.1s-1-1.72-1.46-2.46-.88-1.44-1.3-2.09-.87-1.34-1.35-2l-1.57-2.31c-.57-.83-1.22-1.78-1.94-2.85-.21-.26-.53-.71-1-1.33s-.93-1.35-1.48-2.16-1.13-1.66-1.72-2.55L554.37,644q-.79-1.15-1.35-2l-.74-1.11c-.61-.84-1.15-1.54-1.6-2.09a9.71,9.71,0,0,0-1.28-1.33,4.55,4.55,0,0,0-1.27-.76,6.55,6.55,0,0,0-1.56-.4l-1.88-.3v-2.27l3.88.13c1,.06,2.11.1,3.2.11s2,0,2.64,0c.44,0,1.13,0,2.07,0l3.14-.09,3.53-.08c1.2,0,2.29,0,3.25,0V636l-2.62.17a5.63,5.63,0,0,0-2.59.55,1.68,1.68,0,0,0-.72,1.54,4.76,4.76,0,0,0,.35,1.66,8.42,8.42,0,0,0,.74,1.53c.55.9,1.18,1.89,1.89,3l2.25,3.38c.78,1.17,1.57,2.37,2.37,3.59s1.58,2.44,2.34,3.66c.37.61.82,1.32,1.35,2.12l1.52,2.33c.29.44.58.87.85,1.31s.58.87.9,1.3c.52-.75,1-1.52,1.54-2.3l1.51-2.32c.43-.63.88-1.31,1.35-2s.92-1.43,1.37-2.16.89-1.44,1.31-2.16.8-1.37,1.15-2l1.07-1.76c.39-.66.79-1.31,1.18-1.94l1.11-1.83.83-1.4a18.14,18.14,0,0,0,.78-1.85,5.34,5.34,0,0,0,.39-1.72,1.89,1.89,0,0,0-1-1.92,9,9,0,0,0-2.92-.57l-2.49-.17v-2.27l4.36.13,1.79.07,1.76,0c.57,0,1.09,0,1.57,0H593c.44,0,1.08,0,1.94,0s1.71-.05,2.55-.11l3.18-.13V636l-1.87.17a3.75,3.75,0,0,0-1.79.61,7.53,7.53,0,0,0-1.52,1.4c-.79,1-1.73,2.31-2.84,3.9s-2.26,3.3-3.48,5.14-2.45,3.75-3.69,5.71-2.39,3.82-3.48,5.58-2.05,3.34-2.88,4.75-1.43,2.49-1.81,3.25v15.29c0,1.72.33,2.87,1,3.45a4.75,4.75,0,0,0,3,1l3.88.3v2.27c-.64,0-1.5,0-2.57,0l-3.43-.08-3.48-.09C574.54,688.54,573.62,688.53,572.89,688.53Z"/><path class="cls-1" d="M611.1,662.86a26.4,26.4,0,0,1,1.28-8.26,29,29,0,0,1,3.56-7.24,29.75,29.75,0,0,1,5.4-6,35,35,0,0,1,6.84-4.53A36.29,36.29,0,0,1,636,634a35.71,35.71,0,0,1,8.45-1,28.75,28.75,0,0,1,7.63,1,28.32,28.32,0,0,1,6.69,2.74,26.48,26.48,0,0,1,5.54,4.25,27,27,0,0,1,6.88,12,27.12,27.12,0,0,1,.94,7.17,26.13,26.13,0,0,1-1.24,8.17,27.32,27.32,0,0,1-3.47,7,28.39,28.39,0,0,1-5.29,5.78,33.55,33.55,0,0,1-6.74,4.33,36.15,36.15,0,0,1-7.75,2.73,38,38,0,0,1-8.42.93,30.93,30.93,0,0,1-11.44-2,27.47,27.47,0,0,1-8.89-5.61,24.89,24.89,0,0,1-5.77-8.32A25.65,25.65,0,0,1,611.1,662.86Zm8.41-2.36a27.38,27.38,0,0,0,1.2,8.48,23.9,23.9,0,0,0,3.12,6.41,20.57,20.57,0,0,0,4.33,4.57,24.26,24.26,0,0,0,4.91,3,23.41,23.41,0,0,0,4.77,1.59,19.4,19.4,0,0,0,3.9.48,31.66,31.66,0,0,0,4-.31,25.25,25.25,0,0,0,4.8-1.15,23.26,23.26,0,0,0,4.9-2.38,16.89,16.89,0,0,0,4.34-4,20.21,20.21,0,0,0,3.11-6,26.35,26.35,0,0,0,1.2-8.43,29.75,29.75,0,0,0-.93-7.67,25.42,25.42,0,0,0-2.6-6.3,22.17,22.17,0,0,0-3.92-4.94,23,23,0,0,0-10.29-5.69,22.82,22.82,0,0,0-5.66-.72,25.27,25.27,0,0,0-7.67,1.2,17.94,17.94,0,0,0-6.78,3.92,20,20,0,0,0-4.84,7.15A28.27,28.27,0,0,0,619.51,660.5Z"/><path class="cls-1" d="M741.53,636.27a6.64,6.64,0,0,0-1.63.24,2,2,0,0,0-1,.81,4.64,4.64,0,0,0-.61,1.8,29.23,29.23,0,0,0-.28,3.21q-.13,3.39-.15,6.86t0,6.61v11.85a23,23,0,0,1-1.76,9.28,18.67,18.67,0,0,1-5,6.82,21.47,21.47,0,0,1-7.67,4.19,32.69,32.69,0,0,1-9.87,1.41,32.13,32.13,0,0,1-9.94-1.37,18.38,18.38,0,0,1-7-4,16.43,16.43,0,0,1-4.2-6.47,25.56,25.56,0,0,1-1.4-8.76V653.05c0-1.25,0-2.57,0-4s0-2.71-.07-3.94-.06-2.31-.1-3.23a16.21,16.21,0,0,0-.16-1.81,10.44,10.44,0,0,0-.35-1.87,2.93,2.93,0,0,0-.61-1.18,2.2,2.2,0,0,0-1-.63,6,6,0,0,0-1.52-.24l-3.05-.17v-2.27c.63,0,1.47,0,2.5,0l3.18.08,3,.09c1,0,1.64,0,2.07,0,2.15,0,4.06,0,5.71-.08l5-.18V636l-3,.17a3.78,3.78,0,0,0-2.66,1,5.92,5.92,0,0,0-1,3.47c0,.14-.06.59-.11,1.33s-.08,1.67-.11,2.79-.05,2.39-.08,3.83,0,2.93,0,4.47V668q0,8.1,4.19,12.29t13.2,4.18a22.13,22.13,0,0,0,6.13-.85,14.43,14.43,0,0,0,5.34-2.81,14.22,14.22,0,0,0,3.79-5.17,19.35,19.35,0,0,0,1.44-8V658.1q0-2.82,0-5.25t-.06-4.53c0-1.41-.07-2.75-.11-4s-.1-2.49-.15-3.68a8.86,8.86,0,0,0-.31-2.27,3.11,3.11,0,0,0-.74-1.35,2.41,2.41,0,0,0-1.18-.65,8.15,8.15,0,0,0-1.65-.22l-4-.13v-2.27c.64,0,1.42,0,2.33,0l2.86.08,2.9.09c.94,0,1.76,0,2.46,0,.46,0,1.16,0,2.09,0l2.9-.09,2.85-.08c.9,0,1.56,0,2,0V636Z"/><circle class="cls-1" cx="273.43" cy="667.89" r="9.9"/><circle class="cls-1" cx="520.97" cy="667.89" r="9.9"/></g></g></svg>