<svg xmlns="http://www.w3.org/2000/svg" width="512" height="512" viewBox="0 0 461.356 461.356" style="enable-background:new 0 0 512 512" xml:space="preserve"><path d="M235.689 448.597C251.318 334.221 247.058 95.12 247.058 76.43c0-42.213-7.446-76.43-16.649-76.43-9.191 0-16.641 34.217-16.641 76.429 0 18.586 7.224 314.373 13.141 371.9 1.783 17.228 6.429 17.42 8.78.268zM224.146 44.414c0-16.593 2.921-30.06 6.532-30.06 3.619 0 6.538 13.459 6.538 30.06 0 16.591-2.919 30.052-6.538 30.052-3.603 0-6.532-13.453-6.532-30.052z" fill="#5da294" data-original="#000000" xmlns="http://www.w3.org/2000/svg"/></svg>